<?xml version="1.0" standalone="no"?>
<!DOCTYPE svg PUBLIC "-//W3C//DTD SVG 20010904//EN"
 "http://www.w3.org/TR/2001/REC-SVG-20010904/DTD/svg10.dtd">
<svg version="1.0" xmlns="http://www.w3.org/2000/svg"
 width="250.000000pt" height="250.000000pt" viewBox="0 0 250.000000 250.000000"
 preserveAspectRatio="xMidYMid meet">
<metadata>
Created by potrace 1.11, written by Peter Selinger 2001-2013
</metadata>
<g transform="translate(0.000000,250.000000) scale(0.100000,-0.100000)"
fill="#000000" stroke="none">
<path d="M1328 2175 c-1 -1 -27 -6 -57 -9 -30 -4 -64 -9 -75 -11 -30 -7 -78
-16 -103 -20 -11 -2 -47 -11 -80 -20 -32 -9 -66 -19 -75 -20 -9 -2 -27 -9 -40
-16 -13 -7 -23 -11 -23 -10 0 1 -13 -2 -28 -8 -15 -6 -40 -14 -55 -18 -47 -11
-261 -122 -339 -174 -99 -67 -106 -73 -184 -149 -122 -120 -185 -251 -176
-366 5 -64 29 -128 59 -155 10 -9 18 -21 18 -28 0 -6 4 -11 10 -11 5 0 21 -11
35 -25 14 -14 25 -23 25 -19 0 4 9 -1 19 -10 11 -10 28 -19 38 -20 10 -2 18
-8 18 -14 0 -6 4 -14 9 -19 5 -5 6 -3 2 5 -8 13 6 17 18 5 7 -8 11 -9 37 -12
5 0 8 -5 5 -9 -2 -4 8 -7 22 -6 15 1 32 -3 38 -7 7 -5 11 -3 11 6 0 8 -6 16
-14 16 -39 4 -153 57 -153 71 0 5 -5 8 -10 8 -10 0 -50 36 -50 44 0 13 32 -4
70 -37 24 -20 47 -34 51 -31 5 3 9 0 9 -5 0 -6 6 -11 14 -11 8 0 21 -6 28 -12
7 -7 24 -14 38 -16 13 -1 27 -6 30 -10 3 -4 14 -8 25 -9 11 -1 35 -6 54 -10
33 -8 34 -10 37 -59 1 -29 12 -70 24 -95 24 -46 105 -129 126 -129 7 0 14 -5
16 -10 2 -6 14 -12 28 -15 14 -3 30 -12 36 -20 9 -12 13 -13 16 -3 4 10 8 10
19 2 15 -12 82 -23 160 -28 25 -1 51 -6 57 -10 7 -4 12 -2 12 4 0 6 5 8 10 5
6 -3 10 -10 10 -14 0 -10 -81 -8 -97 2 -8 5 -13 4 -13 -3 0 -6 -4 -9 -8 -6 -5
3 -22 7 -38 10 -123 21 -135 24 -150 37 -8 6 -14 9 -14 5 0 -8 -91 43 -117 67
-12 11 -20 24 -17 28 3 5 -2 9 -10 9 -9 0 -16 4 -16 9 0 5 -7 17 -16 25 -8 9
-17 24 -19 33 -2 10 -7 29 -12 43 -5 14 -8 40 -6 58 1 17 2 32 0 32 -1 0 -20
7 -42 14 -46 16 -65 7 -65 -31 0 -16 -4 -22 -12 -17 -6 4 -9 3 -5 -2 3 -5 6
-32 8 -59 1 -28 6 -58 11 -68 6 -11 5 -17 -3 -17 -8 0 -6 -7 4 -18 10 -10 14
-22 10 -25 -3 -4 -1 -7 5 -7 6 0 14 -10 18 -22 6 -21 39 -56 97 -105 15 -13
27 -21 27 -18 0 2 22 -7 49 -20 27 -14 56 -25 66 -25 9 0 14 -4 11 -9 -4 -5 2
-8 11 -6 10 1 24 -3 32 -9 11 -8 13 -8 7 1 -5 9 -2 11 11 6 10 -3 23 -9 28
-13 6 -4 83 -8 173 -9 90 0 168 -3 173 -7 5 -3 8 0 7 7 -2 9 11 13 44 14 25 0
44 4 41 8 -3 5 5 7 18 6 13 -2 30 1 38 6 10 5 16 4 19 -4 3 -9 7 -8 16 3 6 8
34 19 61 25 56 13 63 15 87 25 9 4 22 5 28 1 5 -3 10 -1 10 4 0 6 6 11 14 11
8 0 43 13 79 29 36 16 68 27 71 24 3 -4 6 -1 6 6 0 7 6 11 14 8 8 -3 17 1 20
9 3 9 10 13 15 9 5 -3 12 -1 16 4 3 5 30 21 60 35 29 14 57 31 60 36 4 6 11 8
16 5 5 -4 9 -1 9 4 0 6 7 11 15 11 8 0 15 5 15 11 0 5 5 7 10 4 6 -3 10 -1 10
5 0 6 11 15 25 20 14 5 25 15 25 21 0 6 6 9 14 6 9 -4 16 2 19 15 4 14 11 19
22 14 9 -3 14 -2 11 3 -3 5 1 14 9 21 8 7 15 9 15 5 0 -4 9 4 21 19 11 14 25
24 30 20 5 -3 8 -1 7 3 -2 5 11 23 27 40 17 17 44 48 60 69 17 21 38 46 47 55
9 10 14 19 12 22 -2 2 2 10 11 17 8 7 15 19 15 26 0 8 5 14 12 14 6 0 8 3 5 6
-3 4 -1 16 5 28 7 11 13 26 15 31 1 6 4 17 6 25 2 8 8 24 12 34 9 22 11 119 2
152 -23 89 -100 174 -206 224 l-68 33 -5 62 c-11 131 -141 258 -308 301 -8 2
-42 11 -75 20 -41 11 -116 17 -237 19 -97 2 -178 2 -180 0z m350 -59 c124 -16
265 -74 334 -135 74 -65 99 -117 107 -216 1 -6 21 -19 46 -29 54 -23 134 -98
161 -152 28 -57 25 -182 -6 -249 -13 -27 -22 -54 -21 -59 1 -5 -5 -6 -12 -3
-10 4 -13 0 -11 -11 4 -18 -18 -51 -72 -109 -18 -18 -30 -33 -28 -33 2 0 -5
-9 -16 -20 -11 -11 -21 -19 -22 -18 -2 1 -21 -16 -44 -38 -54 -52 -71 -65
-156 -121 -74 -49 -187 -108 -200 -105 -5 1 -8 -3 -8 -8 0 -6 -4 -10 -9 -10
-5 0 -26 -8 -47 -17 -22 -9 -48 -18 -59 -20 -10 -2 -23 -9 -27 -16 -4 -6 -8
-9 -8 -5 0 3 -24 -2 -52 -12 -29 -10 -56 -16 -60 -14 -5 3 -8 0 -8 -6 0 -6 -4
-9 -9 -5 -5 3 -12 1 -15 -3 -3 -5 -17 -8 -31 -7 -14 2 -25 -1 -25 -6 0 -5 -16
-9 -36 -9 -19 0 -44 -5 -55 -10 -14 -8 -19 -7 -19 2 0 8 -3 9 -8 3 -4 -5 -18
-11 -32 -11 -14 -1 -46 -4 -72 -7 -34 -4 -48 -3 -48 6 0 8 17 12 48 13 26 0
70 4 97 8 28 4 61 9 75 11 14 2 26 3 28 4 1 1 3 1 5 0 1 0 15 4 30 10 15 6 40
13 55 16 56 10 68 14 115 34 26 11 47 17 47 14 0 -4 5 -2 12 5 7 7 20 12 30
12 10 0 18 5 18 11 0 6 6 9 14 6 8 -3 16 -3 18 1 2 4 36 23 76 42 39 19 72 38
72 43 0 4 5 5 10 2 6 -3 10 -3 10 2 0 4 12 14 28 21 66 29 205 148 290 246 40
48 102 152 95 160 -4 3 0 6 7 6 7 0 10 3 7 7 -4 3 0 17 8 30 9 14 11 23 5 23
-6 0 -8 5 -5 10 4 6 11 7 17 4 7 -5 8 -2 3 7 -5 7 -10 38 -12 69 -2 31 -12 73
-25 98 -25 50 -92 115 -143 139 -32 15 -37 15 -45 3 -6 -8 -7 -22 -4 -30 3 -8
2 -11 -3 -7 -4 4 -7 38 -8 75 0 133 -84 228 -252 287 -181 63 -450 67 -699 11
-12 -2 -37 -7 -55 -10 -33 -6 -179 -51 -249 -77 -69 -26 -256 -125 -326 -172
-67 -45 -174 -141 -220 -197 -11 -14 -30 -47 -43 -73 -12 -26 -27 -50 -33 -53
-5 -3 -7 -12 -4 -20 3 -8 2 -14 -3 -14 -8 0 -9 -4 -12 -60 -1 -19 -7 -41 -13
-49 -8 -11 -8 -13 2 -7 7 4 12 2 13 -6 2 -42 35 -118 51 -118 18 0 6 -16 -12
-17 -11 -1 -20 3 -20 8 0 5 -9 19 -20 31 -17 19 -25 45 -21 71 0 4 -3 7 -7 7
-8 0 -9 106 -2 120 1 3 2 9 1 14 -1 4 15 42 36 85 45 91 165 217 283 297 62
43 252 148 278 155 13 3 37 12 72 26 62 26 200 68 255 79 11 2 54 10 95 19 41
8 98 17 125 21 28 3 51 7 52 8 5 5 276 -2 321 -8z"/>
<path d="M406 998 c3 -5 10 -6 15 -3 13 9 11 12 -6 12 -8 0 -12 -4 -9 -9z"/>
<path d="M1805 700 c10 -11 20 -20 23 -20 3 0 -3 9 -13 20 -10 11 -20 20 -23
20 -3 0 3 -9 13 -20z"/>
<path d="M995 529 c-4 -6 -5 -12 -2 -15 2 -3 7 2 10 11 7 17 1 20 -8 4z"/>
<path d="M1150 501 c0 -6 4 -13 10 -16 6 -3 7 1 4 9 -7 18 -14 21 -14 7z"/>
</g>
</svg>
